<?xml version="1.0" standalone="no"?>
<!DOCTYPE svg PUBLIC "-//W3C//DTD SVG 20010904//EN"
        "http://www.w3.org/TR/2001/REC-SVG-20010904/DTD/svg10.dtd">
<svg version="1.0" xmlns="http://www.w3.org/2000/svg"
     width="613.000000pt" height="613.000000pt" viewBox="0 0 613.000000 613.000000"
     preserveAspectRatio="xMidYMid meet">
    <metadata>
        Created by potrace 1.14, written by Peter Selinger 2001-2017
    </metadata>
    <g transform="translate(0.000000,613.000000) scale(0.100000,-0.100000)"
       fill="#000000" stroke="none">
        <path d="M2770 6117 c-3 -3 -34 -8 -70 -11 -36 -4 -74 -9 -85 -11 -11 -3 -36
-7 -55 -9 -19 -3 -68 -12 -109 -21 -480 -101 -920 -308 -1301 -613 -202 -162
-454 -432 -602 -647 -234 -337 -412 -757 -483 -1135 -3 -14 -7 -36 -10 -50
-34 -172 -49 -352 -49 -570 1 -128 9 -289 19 -338 1 -9 6 -44 10 -77 3 -33 13
-89 20 -125 8 -37 16 -77 18 -90 25 -134 91 -347 159 -515 161 -392 420 -770
727 -1059 30 -28 64 -60 75 -71 51 -49 239 -193 341 -260 138 -92 166 -108
340 -194 303 -150 529 -222 910 -288 129 -22 681 -27 820 -7 55 7 118 17 140
20 35 5 77 13 150 30 11 3 31 7 44 10 239 49 608 200 856 349 71 43 245 159
285 191 149 119 199 164 319 284 350 352 622 806 760 1270 17 58 33 114 36
125 2 11 13 61 24 111 49 221 65 376 66 639 0 193 -8 336 -25 435 -5 30 -11
71 -14 90 -40 268 -159 623 -302 896 -175 335 -444 676 -709 899 -33 28 -69
58 -80 68 -98 90 -370 265 -563 362 -246 123 -597 242 -800 270 -20 3 -46 8
-58 10 -12 3 -36 7 -55 10 -19 3 -50 8 -69 11 -41 7 -674 17 -680 11z m538
-637 c26 -4 72 -11 102 -14 30 -4 89 -13 130 -22 640 -130 1186 -498 1554
-1049 159 -237 316 -626 360 -893 9 -53 27 -195 32 -246 6 -67 6 -369 0 -387
-3 -8 -7 -46 -11 -85 -24 -284 -159 -684 -327 -963 -389 -650 -1070 -1086
-1823 -1168 -131 -15 -481 -8 -605 11 -812 124 -1499 634 -1852 1376 -52 110
-136 344 -152 426 -2 10 -11 49 -20 86 -19 83 -34 176 -43 270 -10 97 -10 394
0 488 7 74 45 299 52 311 2 3 7 19 9 36 6 34 42 157 55 188 5 11 21 54 36 95
61 163 174 372 288 532 91 127 136 179 276 318 290 288 617 481 1021 603 63
19 129 37 145 40 17 3 41 8 55 11 13 3 40 8 60 11 20 3 45 7 57 9 12 3 53 8
90 11 37 4 70 9 72 11 7 6 393 1 439 -6z"/>
        <path d="M2804 4774 c-156 -32 -275 -149 -303 -300 -5 -27 -9 -487 -10 -1042
l0 -992 1087 2 1087 3 66 32 c80 39 150 111 187 191 23 49 27 70 27 152 0 85
-3 102 -31 160 -37 77 -81 127 -149 168 -92 56 -85 55 -817 56 -372 1 -679 4
-683 8 -4 4 -7 281 -7 616 0 352 -4 628 -9 652 -15 66 -43 121 -90 174 -92
104 -220 148 -355 120z"/>
    </g>
</svg>
